<svg xmlns="http://www.w3.org/2000/svg" version="1.1" xmlns:xlink="http://www.w3.org/1999/xlink" xmlns:svgjs="http://svgjs.dev/svgjs" width="1440" height="560" preserveAspectRatio="none" viewBox="0 0 1440 560"><g mask="url(&quot;#SvgjsMask1029&quot;)" fill="none"><path d="M1615.34 348.29C1434.54 347.01 1281.77 180.11 913.27 174.69 544.78 169.27 399.67-95.73 211.21-100.59" stroke="rgba(55, 49, 55, 1)" stroke-width="2"></path><path d="M1469.35 427.57C1342.82 421.6 1277.58 222.73 1014.87 203.57 752.16 184.41 697.04-91.16 560.39-105.32" stroke="rgba(55, 49, 55, 1)" stroke-width="2"></path><path d="M1533.1 456.82C1365.38 452.1 1244.74 213.27 911.07 204.82 577.4 196.37 455.02-23.96 289.04-27.72" stroke="rgba(55, 49, 55, 1)" stroke-width="2"></path><path d="M1526.48 411.95C1421.99 410.75 1361.27 314.62 1125.37 294.35 889.47 274.08 860.22-61.91 724.26-91.45" stroke="rgba(55, 49, 55, 1)" stroke-width="2"></path><path d="M1583.84 94.14C1435.9 95.27 1227.44 240.03 1010.26 239.74 793.08 239.45 819.27-6.58 723.47-25.9" stroke="rgba(55, 49, 55, 1)" stroke-width="2"></path></g><defs><mask id="SvgjsMask1029"><rect width="1440" height="560" fill="#ffffff"></rect></mask></defs></svg>