<svg xmlns="http://www.w3.org/2000/svg" version="1.1" xmlns:xlink="http://www.w3.org/1999/xlink" xmlns:svgjs="http://svgjs.dev/svgjs" width="800" height="250" preserveAspectRatio="none" viewBox="0 0 800 250"><g mask="url(&quot;#SvgjsMask1027&quot;)" fill="none"><path d="M22 250L272 0L462.5 0L212.5 250z" fill="url(&quot;#SvgjsLinearGradient1028&quot;)"></path><path d="M202 250L452 0L542 0L292 250z" fill="url(&quot;#SvgjsLinearGradient1028&quot;)"></path><path d="M386 250L636 0L897 0L647 250z" fill="url(&quot;#SvgjsLinearGradient1028&quot;)"></path><path d="M784 250L534 0L301.5 0L551.5 250z" fill="url(&quot;#SvgjsLinearGradient1029&quot;)"></path><path d="M593 250L343 0L199 0L449 250z" fill="url(&quot;#SvgjsLinearGradient1029&quot;)"></path><path d="M446 250L196 0L95.5 0L345.5 250z" fill="url(&quot;#SvgjsLinearGradient1029&quot;)"></path><path d="M601.1027897481785 250L800 51.10278974817848L800 250z" fill="url(&quot;#SvgjsLinearGradient1028&quot;)"></path><path d="M0 250L198.89721025182152 250L 0 51.10278974817848z" fill="url(&quot;#SvgjsLinearGradient1029&quot;)"></path></g><defs><mask id="SvgjsMask1027"><rect width="800" height="250" fill="#ffffff"></rect></mask><linearGradient x1="0%" y1="100%" x2="100%" y2="0%" id="SvgjsLinearGradient1028"><stop stop-color="rgba(240, 93, 94, 1)" offset="0"></stop><stop stop-opacity="0" stop-color="rgba(240, 93, 94, 1)" offset="0.66"></stop></linearGradient><linearGradient x1="100%" y1="100%" x2="0%" y2="0%" id="SvgjsLinearGradient1029"><stop stop-color="rgba(240, 93, 94, 1)" offset="0"></stop><stop stop-opacity="0" stop-color="rgba(240, 93, 94, 1)" offset="0.66"></stop></linearGradient></defs></svg>