<svg xmlns="http://www.w3.org/2000/svg" version="1.1" xmlns:xlink="http://www.w3.org/1999/xlink" xmlns:svgjs="http://svgjs.dev/svgjs" width="1440" height="560" preserveAspectRatio="none" viewBox="0 0 1440 560"><g mask="url(&quot;#SvgjsMask1075&quot;)" fill="none"><path d="M-98.67 373.36L-98.67 373.36" stroke="rgba(35, 33, 35, 1)" stroke-width="1.5"></path><path d="M-98.67 373.36L-79.94 509.32" stroke="rgba(35, 33, 35, 1)" stroke-width="1.5"></path><path d="M-98.67 373.36L112.3 378.48" stroke="rgba(35, 33, 35, 1)" stroke-width="1.5"></path><path d="M-79.94 509.32L-79.94 509.32" stroke="rgba(35, 33, 35, 1)" stroke-width="1.5"></path><path d="M-79.94 509.32L55.25 552.83" stroke="rgba(35, 33, 35, 1)" stroke-width="1.5"></path><path d="M-84.23 689.43L-84.23 689.43" stroke="rgba(35, 33, 35, 1)" stroke-width="1.5"></path><path d="M-84.23 689.43L64.54 678.91" stroke="rgba(35, 33, 35, 1)" stroke-width="1.5"></path><path d="M-84.23 689.43L-79.94 509.32" stroke="rgba(35, 33, 35, 1)" stroke-width="1.5"></path><path d="M112.3 378.48L112.3 378.48" stroke="rgba(35, 33, 35, 1)" stroke-width="1.5"></path><path d="M112.3 378.48L251.72 410.4" stroke="rgba(35, 33, 35, 1)" stroke-width="1.5"></path><path d="M112.3 378.48L55.25 552.83" stroke="rgba(35, 33, 35, 1)" stroke-width="1.5"></path><path d="M55.25 552.83L55.25 552.83" stroke="rgba(35, 33, 35, 1)" stroke-width="1.5"></path><path d="M55.25 552.83L64.54 678.91" stroke="rgba(35, 33, 35, 1)" stroke-width="1.5"></path><path d="M55.25 552.83L250.25 555.91" stroke="rgba(35, 33, 35, 1)" stroke-width="1.5"></path><path d="M55.25 552.83L-84.23 689.43" stroke="rgba(35, 33, 35, 1)" stroke-width="1.5"></path><path d="M64.54 678.91L64.54 678.91" stroke="rgba(35, 33, 35, 1)" stroke-width="1.5"></path><path d="M64.54 678.91L256.45 687.27" stroke="rgba(35, 33, 35, 1)" stroke-width="1.5"></path><path d="M251.72 410.4L251.72 410.4" stroke="rgba(35, 33, 35, 1)" stroke-width="1.5"></path><path d="M251.72 410.4L348.71 355.9" stroke="rgba(35, 33, 35, 1)" stroke-width="1.5"></path><path d="M251.72 410.4L351.41 513.79" stroke="rgba(35, 33, 35, 1)" stroke-width="1.5"></path><path d="M251.72 410.4L250.25 555.91" stroke="rgba(35, 33, 35, 1)" stroke-width="1.5"></path><path d="M251.72 410.4L55.25 552.83" stroke="rgba(35, 33, 35, 1)" stroke-width="1.5"></path><path d="M251.72 410.4L256.45 687.27" stroke="rgba(35, 33, 35, 1)" stroke-width="1.5"></path><path d="M250.25 555.91L250.25 555.91" stroke="rgba(35, 33, 35, 1)" stroke-width="1.5"></path><path d="M250.25 555.91L351.41 513.79" stroke="rgba(35, 33, 35, 1)" stroke-width="1.5"></path><path d="M250.25 555.91L256.45 687.27" stroke="rgba(35, 33, 35, 1)" stroke-width="1.5"></path><path d="M256.45 687.27L256.45 687.27" stroke="rgba(35, 33, 35, 1)" stroke-width="1.5"></path><path d="M256.45 687.27L405.39 688.82" stroke="rgba(35, 33, 35, 1)" stroke-width="1.5"></path><path d="M348.71 355.9L348.71 355.9" stroke="rgba(35, 33, 35, 1)" stroke-width="1.5"></path><path d="M348.71 355.9L351.41 513.79" stroke="rgba(35, 33, 35, 1)" stroke-width="1.5"></path><path d="M348.71 355.9L560.77 366.91" stroke="rgba(35, 33, 35, 1)" stroke-width="1.5"></path><path d="M348.71 355.9L250.25 555.91" stroke="rgba(35, 33, 35, 1)" stroke-width="1.5"></path><path d="M348.71 355.9L528.43 494.42" stroke="rgba(35, 33, 35, 1)" stroke-width="1.5"></path><path d="M351.41 513.79L351.41 513.79" stroke="rgba(35, 33, 35, 1)" stroke-width="1.5"></path><path d="M405.39 688.82L405.39 688.82" stroke="rgba(35, 33, 35, 1)" stroke-width="1.5"></path><path d="M405.39 688.82L550.22 656.41" stroke="rgba(35, 33, 35, 1)" stroke-width="1.5"></path><path d="M560.77 366.91L560.77 366.91" stroke="rgba(35, 33, 35, 1)" stroke-width="1.5"></path><path d="M560.77 366.91L655.53 384.84" stroke="rgba(35, 33, 35, 1)" stroke-width="1.5"></path><path d="M560.77 366.91L528.43 494.42" stroke="rgba(35, 33, 35, 1)" stroke-width="1.5"></path><path d="M560.77 366.91L690.68 206.25" stroke="rgba(35, 33, 35, 1)" stroke-width="1.5"></path><path d="M560.77 366.91L699.57 542.15" stroke="rgba(35, 33, 35, 1)" stroke-width="1.5"></path><path d="M528.43 494.42L528.43 494.42" stroke="rgba(35, 33, 35, 1)" stroke-width="1.5"></path><path d="M528.43 494.42L550.22 656.41" stroke="rgba(35, 33, 35, 1)" stroke-width="1.5"></path><path d="M550.22 656.41L550.22 656.41" stroke="rgba(35, 33, 35, 1)" stroke-width="1.5"></path><path d="M550.22 656.41L688.95 641.57" stroke="rgba(35, 33, 35, 1)" stroke-width="1.5"></path><path d="M690.68 206.25L690.68 206.25" stroke="rgba(35, 33, 35, 1)" stroke-width="1.5"></path><path d="M690.68 206.25L856.24 227.5" stroke="rgba(35, 33, 35, 1)" stroke-width="1.5"></path><path d="M690.68 206.25L655.53 384.84" stroke="rgba(35, 33, 35, 1)" stroke-width="1.5"></path><path d="M690.68 206.25L804.26 411.38" stroke="rgba(35, 33, 35, 1)" stroke-width="1.5"></path><path d="M655.53 384.84L655.53 384.84" stroke="rgba(35, 33, 35, 1)" stroke-width="1.5"></path><path d="M655.53 384.84L804.26 411.38" stroke="rgba(35, 33, 35, 1)" stroke-width="1.5"></path><path d="M655.53 384.84L699.57 542.15" stroke="rgba(35, 33, 35, 1)" stroke-width="1.5"></path><path d="M699.57 542.15L699.57 542.15" stroke="rgba(35, 33, 35, 1)" stroke-width="1.5"></path><path d="M699.57 542.15L688.95 641.57" stroke="rgba(35, 33, 35, 1)" stroke-width="1.5"></path><path d="M699.57 542.15L857.64 540.3" stroke="rgba(35, 33, 35, 1)" stroke-width="1.5"></path><path d="M699.57 542.15L807.99 658.04" stroke="rgba(35, 33, 35, 1)" stroke-width="1.5"></path><path d="M699.57 542.15L804.26 411.38" stroke="rgba(35, 33, 35, 1)" stroke-width="1.5"></path><path d="M699.57 542.15L528.43 494.42" stroke="rgba(35, 33, 35, 1)" stroke-width="1.5"></path><path d="M688.95 641.57L688.95 641.57" stroke="rgba(35, 33, 35, 1)" stroke-width="1.5"></path><path d="M688.95 641.57L807.99 658.04" stroke="rgba(35, 33, 35, 1)" stroke-width="1.5"></path><path d="M688.95 641.57L857.64 540.3" stroke="rgba(35, 33, 35, 1)" stroke-width="1.5"></path><path d="M688.95 641.57L528.43 494.42" stroke="rgba(35, 33, 35, 1)" stroke-width="1.5"></path><path d="M688.95 641.57L804.26 411.38" stroke="rgba(35, 33, 35, 1)" stroke-width="1.5"></path><path d="M856.24 227.5L856.24 227.5" stroke="rgba(35, 33, 35, 1)" stroke-width="1.5"></path><path d="M856.24 227.5L948.25 255.55" stroke="rgba(35, 33, 35, 1)" stroke-width="1.5"></path><path d="M856.24 227.5L963.42 367.38" stroke="rgba(35, 33, 35, 1)" stroke-width="1.5"></path><path d="M856.24 227.5L995.56 111.78" stroke="rgba(35, 33, 35, 1)" stroke-width="1.5"></path><path d="M856.24 227.5L804.26 411.38" stroke="rgba(35, 33, 35, 1)" stroke-width="1.5"></path><path d="M856.24 227.5L655.53 384.84" stroke="rgba(35, 33, 35, 1)" stroke-width="1.5"></path><path d="M804.26 411.38L804.26 411.38" stroke="rgba(35, 33, 35, 1)" stroke-width="1.5"></path><path d="M804.26 411.38L857.64 540.3" stroke="rgba(35, 33, 35, 1)" stroke-width="1.5"></path><path d="M804.26 411.38L963.42 367.38" stroke="rgba(35, 33, 35, 1)" stroke-width="1.5"></path><path d="M857.64 540.3L857.64 540.3" stroke="rgba(35, 33, 35, 1)" stroke-width="1.5"></path><path d="M857.64 540.3L807.99 658.04" stroke="rgba(35, 33, 35, 1)" stroke-width="1.5"></path><path d="M807.99 658.04L807.99 658.04" stroke="rgba(35, 33, 35, 1)" stroke-width="1.5"></path><path d="M807.99 658.04L996.24 699.52" stroke="rgba(35, 33, 35, 1)" stroke-width="1.5"></path><path d="M807.99 658.04L804.26 411.38" stroke="rgba(35, 33, 35, 1)" stroke-width="1.5"></path><path d="M807.99 658.04L550.22 656.41" stroke="rgba(35, 33, 35, 1)" stroke-width="1.5"></path><path d="M1006.63 -73.01L1006.63 -73.01" stroke="rgba(35, 33, 35, 1)" stroke-width="1.5"></path><path d="M1006.63 -73.01L1121.94 -111.71" stroke="rgba(35, 33, 35, 1)" stroke-width="1.5"></path><path d="M1006.63 -73.01L1117.85 37.53" stroke="rgba(35, 33, 35, 1)" stroke-width="1.5"></path><path d="M1006.63 -73.01L995.56 111.78" stroke="rgba(35, 33, 35, 1)" stroke-width="1.5"></path><path d="M1006.63 -73.01L1279.98 -108.59" stroke="rgba(35, 33, 35, 1)" stroke-width="1.5"></path><path d="M1006.63 -73.01L1238.18 90.34" stroke="rgba(35, 33, 35, 1)" stroke-width="1.5"></path><path d="M995.56 111.78L995.56 111.78" stroke="rgba(35, 33, 35, 1)" stroke-width="1.5"></path><path d="M995.56 111.78L1117.85 37.53" stroke="rgba(35, 33, 35, 1)" stroke-width="1.5"></path><path d="M995.56 111.78L948.25 255.55" stroke="rgba(35, 33, 35, 1)" stroke-width="1.5"></path><path d="M948.25 255.55L948.25 255.55" stroke="rgba(35, 33, 35, 1)" stroke-width="1.5"></path><path d="M948.25 255.55L963.42 367.38" stroke="rgba(35, 33, 35, 1)" stroke-width="1.5"></path><path d="M948.25 255.55L1142.41 240.02" stroke="rgba(35, 33, 35, 1)" stroke-width="1.5"></path><path d="M963.42 367.38L963.42 367.38" stroke="rgba(35, 33, 35, 1)" stroke-width="1.5"></path><path d="M963.42 367.38L1133.84 377.34" stroke="rgba(35, 33, 35, 1)" stroke-width="1.5"></path><path d="M963.42 367.38L857.64 540.3" stroke="rgba(35, 33, 35, 1)" stroke-width="1.5"></path><path d="M963.42 367.38L1096.09 528.39" stroke="rgba(35, 33, 35, 1)" stroke-width="1.5"></path><path d="M996.24 699.52L996.24 699.52" stroke="rgba(35, 33, 35, 1)" stroke-width="1.5"></path><path d="M996.24 699.52L1093.42 678.4" stroke="rgba(35, 33, 35, 1)" stroke-width="1.5"></path><path d="M996.24 699.52L1096.09 528.39" stroke="rgba(35, 33, 35, 1)" stroke-width="1.5"></path><path d="M996.24 699.52L857.64 540.3" stroke="rgba(35, 33, 35, 1)" stroke-width="1.5"></path><path d="M996.24 699.52L1306.34 707.36" stroke="rgba(35, 33, 35, 1)" stroke-width="1.5"></path><path d="M996.24 699.52L688.95 641.57" stroke="rgba(35, 33, 35, 1)" stroke-width="1.5"></path><path d="M1121.94 -111.71L1121.94 -111.71" stroke="rgba(35, 33, 35, 1)" stroke-width="1.5"></path><path d="M1121.94 -111.71L1117.85 37.53" stroke="rgba(35, 33, 35, 1)" stroke-width="1.5"></path><path d="M1117.85 37.53L1117.85 37.53" stroke="rgba(35, 33, 35, 1)" stroke-width="1.5"></path><path d="M1117.85 37.53L1238.18 90.34" stroke="rgba(35, 33, 35, 1)" stroke-width="1.5"></path><path d="M1142.41 240.02L1142.41 240.02" stroke="rgba(35, 33, 35, 1)" stroke-width="1.5"></path><path d="M1142.41 240.02L1133.84 377.34" stroke="rgba(35, 33, 35, 1)" stroke-width="1.5"></path><path d="M1142.41 240.02L1299.76 199.84" stroke="rgba(35, 33, 35, 1)" stroke-width="1.5"></path><path d="M1133.84 377.34L1133.84 377.34" stroke="rgba(35, 33, 35, 1)" stroke-width="1.5"></path><path d="M1133.84 377.34L1096.09 528.39" stroke="rgba(35, 33, 35, 1)" stroke-width="1.5"></path><path d="M1096.09 528.39L1096.09 528.39" stroke="rgba(35, 33, 35, 1)" stroke-width="1.5"></path><path d="M1096.09 528.39L1093.42 678.4" stroke="rgba(35, 33, 35, 1)" stroke-width="1.5"></path><path d="M1096.09 528.39L1273.09 502.45" stroke="rgba(35, 33, 35, 1)" stroke-width="1.5"></path><path d="M1096.09 528.39L857.64 540.3" stroke="rgba(35, 33, 35, 1)" stroke-width="1.5"></path><path d="M1093.42 678.4L1093.42 678.4" stroke="rgba(35, 33, 35, 1)" stroke-width="1.5"></path><path d="M1093.42 678.4L1306.34 707.36" stroke="rgba(35, 33, 35, 1)" stroke-width="1.5"></path><path d="M1279.98 -108.59L1279.98 -108.59" stroke="rgba(35, 33, 35, 1)" stroke-width="1.5"></path><path d="M1279.98 -108.59L1414.07 -58.17" stroke="rgba(35, 33, 35, 1)" stroke-width="1.5"></path><path d="M1279.98 -108.59L1121.94 -111.71" stroke="rgba(35, 33, 35, 1)" stroke-width="1.5"></path><path d="M1279.98 -108.59L1238.18 90.34" stroke="rgba(35, 33, 35, 1)" stroke-width="1.5"></path><path d="M1279.98 -108.59L1117.85 37.53" stroke="rgba(35, 33, 35, 1)" stroke-width="1.5"></path><path d="M1279.98 -108.59L1456.73 47.44" stroke="rgba(35, 33, 35, 1)" stroke-width="1.5"></path><path d="M1238.18 90.34L1238.18 90.34" stroke="rgba(35, 33, 35, 1)" stroke-width="1.5"></path><path d="M1238.18 90.34L1299.76 199.84" stroke="rgba(35, 33, 35, 1)" stroke-width="1.5"></path><path d="M1238.18 90.34L1142.41 240.02" stroke="rgba(35, 33, 35, 1)" stroke-width="1.5"></path><path d="M1238.18 90.34L1456.73 47.44" stroke="rgba(35, 33, 35, 1)" stroke-width="1.5"></path><path d="M1238.18 90.34L1414.07 -58.17" stroke="rgba(35, 33, 35, 1)" stroke-width="1.5"></path><path d="M1299.76 199.84L1299.76 199.84" stroke="rgba(35, 33, 35, 1)" stroke-width="1.5"></path><path d="M1299.76 199.84L1435.53 238.42" stroke="rgba(35, 33, 35, 1)" stroke-width="1.5"></path><path d="M1299.76 199.84L1294.8 387.88" stroke="rgba(35, 33, 35, 1)" stroke-width="1.5"></path><path d="M1294.8 387.88L1294.8 387.88" stroke="rgba(35, 33, 35, 1)" stroke-width="1.5"></path><path d="M1294.8 387.88L1273.09 502.45" stroke="rgba(35, 33, 35, 1)" stroke-width="1.5"></path><path d="M1294.8 387.88L1133.84 377.34" stroke="rgba(35, 33, 35, 1)" stroke-width="1.5"></path><path d="M1294.8 387.88L1462.29 379.05" stroke="rgba(35, 33, 35, 1)" stroke-width="1.5"></path><path d="M1273.09 502.45L1273.09 502.45" stroke="rgba(35, 33, 35, 1)" stroke-width="1.5"></path><path d="M1306.34 707.36L1306.34 707.36" stroke="rgba(35, 33, 35, 1)" stroke-width="1.5"></path><path d="M1306.34 707.36L1406.26 670.91" stroke="rgba(35, 33, 35, 1)" stroke-width="1.5"></path><path d="M1306.34 707.36L1273.09 502.45" stroke="rgba(35, 33, 35, 1)" stroke-width="1.5"></path><path d="M1414.07 -58.17L1414.07 -58.17" stroke="rgba(35, 33, 35, 1)" stroke-width="1.5"></path><path d="M1414.07 -58.17L1456.73 47.44" stroke="rgba(35, 33, 35, 1)" stroke-width="1.5"></path><path d="M1414.07 -58.17L1561.9 -101.99" stroke="rgba(35, 33, 35, 1)" stroke-width="1.5"></path><path d="M1456.73 47.44L1456.73 47.44" stroke="rgba(35, 33, 35, 1)" stroke-width="1.5"></path><path d="M1456.73 47.44L1561.9 -101.99" stroke="rgba(35, 33, 35, 1)" stroke-width="1.5"></path><path d="M1456.73 47.44L1435.53 238.42" stroke="rgba(35, 33, 35, 1)" stroke-width="1.5"></path><path d="M1435.53 238.42L1435.53 238.42" stroke="rgba(35, 33, 35, 1)" stroke-width="1.5"></path><path d="M1435.53 238.42L1573 217.59" stroke="rgba(35, 33, 35, 1)" stroke-width="1.5"></path><path d="M1435.53 238.42L1462.29 379.05" stroke="rgba(35, 33, 35, 1)" stroke-width="1.5"></path><path d="M1435.53 238.42L1575.98 351.6" stroke="rgba(35, 33, 35, 1)" stroke-width="1.5"></path><path d="M1435.53 238.42L1294.8 387.88" stroke="rgba(35, 33, 35, 1)" stroke-width="1.5"></path><path d="M1462.29 379.05L1462.29 379.05" stroke="rgba(35, 33, 35, 1)" stroke-width="1.5"></path><path d="M1462.29 379.05L1575.98 351.6" stroke="rgba(35, 33, 35, 1)" stroke-width="1.5"></path><path d="M1462.29 379.05L1457.38 500.46" stroke="rgba(35, 33, 35, 1)" stroke-width="1.5"></path><path d="M1462.29 379.05L1593.13 515.44" stroke="rgba(35, 33, 35, 1)" stroke-width="1.5"></path><path d="M1457.38 500.46L1457.38 500.46" stroke="rgba(35, 33, 35, 1)" stroke-width="1.5"></path><path d="M1457.38 500.46L1593.13 515.44" stroke="rgba(35, 33, 35, 1)" stroke-width="1.5"></path><path d="M1457.38 500.46L1406.26 670.91" stroke="rgba(35, 33, 35, 1)" stroke-width="1.5"></path><path d="M1457.38 500.46L1273.09 502.45" stroke="rgba(35, 33, 35, 1)" stroke-width="1.5"></path><path d="M1457.38 500.46L1575.98 351.6" stroke="rgba(35, 33, 35, 1)" stroke-width="1.5"></path><path d="M1457.38 500.46L1294.8 387.88" stroke="rgba(35, 33, 35, 1)" stroke-width="1.5"></path><path d="M1406.26 670.91L1406.26 670.91" stroke="rgba(35, 33, 35, 1)" stroke-width="1.5"></path><path d="M1561.9 -101.99L1561.9 -101.99" stroke="rgba(35, 33, 35, 1)" stroke-width="1.5"></path><path d="M1561.9 -101.99L1279.98 -108.59" stroke="rgba(35, 33, 35, 1)" stroke-width="1.5"></path><path d="M1561.9 -101.99L1573 217.59" stroke="rgba(35, 33, 35, 1)" stroke-width="1.5"></path><path d="M1561.9 -101.99L1435.53 238.42" stroke="rgba(35, 33, 35, 1)" stroke-width="1.5"></path><path d="M1573 217.59L1573 217.59" stroke="rgba(35, 33, 35, 1)" stroke-width="1.5"></path><path d="M1573 217.59L1575.98 351.6" stroke="rgba(35, 33, 35, 1)" stroke-width="1.5"></path><path d="M1573 217.59L1462.29 379.05" stroke="rgba(35, 33, 35, 1)" stroke-width="1.5"></path><path d="M1573 217.59L1456.73 47.44" stroke="rgba(35, 33, 35, 1)" stroke-width="1.5"></path><path d="M1573 217.59L1299.76 199.84" stroke="rgba(35, 33, 35, 1)" stroke-width="1.5"></path><path d="M1573 217.59L1593.13 515.44" stroke="rgba(35, 33, 35, 1)" stroke-width="1.5"></path><path d="M1575.98 351.6L1575.98 351.6" stroke="rgba(35, 33, 35, 1)" stroke-width="1.5"></path><path d="M1575.98 351.6L1593.13 515.44" stroke="rgba(35, 33, 35, 1)" stroke-width="1.5"></path><path d="M1593.13 515.44L1593.13 515.44" stroke="rgba(35, 33, 35, 1)" stroke-width="1.5"></path><path d="M1593.13 515.44L1588.85 666.1" stroke="rgba(35, 33, 35, 1)" stroke-width="1.5"></path><path d="M1588.85 666.1L1588.85 666.1" stroke="rgba(35, 33, 35, 1)" stroke-width="1.5"></path><path d="M1588.85 666.1L1406.26 670.91" stroke="rgba(35, 33, 35, 1)" stroke-width="1.5"></path><path d="M1588.85 666.1L1457.38 500.46" stroke="rgba(35, 33, 35, 1)" stroke-width="1.5"></path><circle r="5" cx="-98.67" cy="373.36" fill="rgba(35, 33, 35, 1)"></circle><circle r="5" cx="-79.94" cy="509.32" fill="rgba(35, 33, 35, 1)"></circle><circle r="5" cx="-84.23" cy="689.43" fill="rgba(35, 33, 35, 1)"></circle><circle r="5" cx="112.3" cy="378.48" fill="rgba(35, 33, 35, 1)"></circle><circle r="5" cx="55.25" cy="552.83" fill="rgba(35, 33, 35, 1)"></circle><circle r="5" cx="64.54" cy="678.91" fill="rgba(35, 33, 35, 1)"></circle><circle r="5" cx="251.72" cy="410.4" fill="rgba(35, 33, 35, 1)"></circle><circle r="5" cx="250.25" cy="555.91" fill="rgba(35, 33, 35, 1)"></circle><circle r="5" cx="256.45" cy="687.27" fill="rgba(35, 33, 35, 1)"></circle><circle r="5" cx="348.71" cy="355.9" fill="rgba(35, 33, 35, 1)"></circle><circle r="5" cx="351.41" cy="513.79" fill="rgba(35, 33, 35, 1)"></circle><circle r="5" cx="405.39" cy="688.82" fill="rgba(35, 33, 35, 1)"></circle><circle r="5" cx="560.77" cy="366.91" fill="rgba(35, 33, 35, 1)"></circle><circle r="5" cx="528.43" cy="494.42" fill="rgba(35, 33, 35, 1)"></circle><circle r="5" cx="550.22" cy="656.41" fill="rgba(35, 33, 35, 1)"></circle><circle r="5" cx="690.68" cy="206.25" fill="rgba(35, 33, 35, 1)"></circle><circle r="5" cx="655.53" cy="384.84" fill="rgba(35, 33, 35, 1)"></circle><circle r="5" cx="699.57" cy="542.15" fill="rgba(35, 33, 35, 1)"></circle><circle r="5" cx="688.95" cy="641.57" fill="rgba(35, 33, 35, 1)"></circle><circle r="5" cx="856.24" cy="227.5" fill="rgba(35, 33, 35, 1)"></circle><circle r="5" cx="804.26" cy="411.38" fill="rgba(35, 33, 35, 1)"></circle><circle r="5" cx="857.64" cy="540.3" fill="rgba(35, 33, 35, 1)"></circle><circle r="5" cx="807.99" cy="658.04" fill="rgba(35, 33, 35, 1)"></circle><circle r="5" cx="1006.63" cy="-73.01" fill="rgba(35, 33, 35, 1)"></circle><circle r="5" cx="995.56" cy="111.78" fill="rgba(35, 33, 35, 1)"></circle><circle r="5" cx="948.25" cy="255.55" fill="rgba(35, 33, 35, 1)"></circle><circle r="5" cx="963.42" cy="367.38" fill="rgba(35, 33, 35, 1)"></circle><circle r="5" cx="996.24" cy="699.52" fill="rgba(35, 33, 35, 1)"></circle><circle r="5" cx="1121.94" cy="-111.71" fill="rgba(35, 33, 35, 1)"></circle><circle r="5" cx="1117.85" cy="37.53" fill="rgba(35, 33, 35, 1)"></circle><circle r="5" cx="1142.41" cy="240.02" fill="rgba(35, 33, 35, 1)"></circle><circle r="5" cx="1133.84" cy="377.34" fill="rgba(35, 33, 35, 1)"></circle><circle r="5" cx="1096.09" cy="528.39" fill="rgba(35, 33, 35, 1)"></circle><circle r="5" cx="1093.42" cy="678.4" fill="rgba(35, 33, 35, 1)"></circle><circle r="5" cx="1279.98" cy="-108.59" fill="rgba(35, 33, 35, 1)"></circle><circle r="5" cx="1238.18" cy="90.34" fill="rgba(35, 33, 35, 1)"></circle><circle r="5" cx="1299.76" cy="199.84" fill="rgba(35, 33, 35, 1)"></circle><circle r="5" cx="1294.8" cy="387.88" fill="rgba(35, 33, 35, 1)"></circle><circle r="5" cx="1273.09" cy="502.45" fill="rgba(35, 33, 35, 1)"></circle><circle r="5" cx="1306.34" cy="707.36" fill="rgba(35, 33, 35, 1)"></circle><circle r="5" cx="1414.07" cy="-58.17" fill="rgba(35, 33, 35, 1)"></circle><circle r="5" cx="1456.73" cy="47.44" fill="rgba(35, 33, 35, 1)"></circle><circle r="5" cx="1435.53" cy="238.42" fill="rgba(35, 33, 35, 1)"></circle><circle r="5" cx="1462.29" cy="379.05" fill="rgba(35, 33, 35, 1)"></circle><circle r="5" cx="1457.38" cy="500.46" fill="rgba(35, 33, 35, 1)"></circle><circle r="5" cx="1406.26" cy="670.91" fill="rgba(35, 33, 35, 1)"></circle><circle r="5" cx="1561.9" cy="-101.99" fill="rgba(35, 33, 35, 1)"></circle><circle r="5" cx="1573" cy="217.59" fill="rgba(35, 33, 35, 1)"></circle><circle r="5" cx="1575.98" cy="351.6" fill="rgba(35, 33, 35, 1)"></circle><circle r="5" cx="1593.13" cy="515.44" fill="rgba(35, 33, 35, 1)"></circle><circle r="5" cx="1588.85" cy="666.1" fill="rgba(35, 33, 35, 1)"></circle><path d="M37.59 502.81L37.59 502.81" stroke="hsl(300, 5%, 30.6%)" stroke-width="1.5"></path><path d="M37.59 502.81L-98.79 534.86" stroke="hsl(300, 5%, 30.6%)" stroke-width="1.5"></path><path d="M37.59 502.81L209.9 539.16" stroke="hsl(300, 5%, 30.6%)" stroke-width="1.5"></path><path d="M209.9 539.16L209.9 539.16" stroke="hsl(300, 5%, 30.6%)" stroke-width="1.5"></path><path d="M209.9 539.16L213.53 682.6" stroke="hsl(300, 5%, 30.6%)" stroke-width="1.5"></path><path d="M209.9 539.16L85.37 672.36" stroke="hsl(300, 5%, 30.6%)" stroke-width="1.5"></path><path d="M546.27 507.83L546.27 507.83" stroke="hsl(300, 5%, 30.6%)" stroke-width="1.5"></path><path d="M546.27 507.83L411.27 510.41" stroke="hsl(300, 5%, 30.6%)" stroke-width="1.5"></path><path d="M546.27 507.83L700.03 402.3" stroke="hsl(300, 5%, 30.6%)" stroke-width="1.5"></path><path d="M546.27 507.83L699.86 671.71" stroke="hsl(300, 5%, 30.6%)" stroke-width="1.5"></path><path d="M546.27 507.83L804.12 496.31" stroke="hsl(300, 5%, 30.6%)" stroke-width="1.5"></path><path d="M546.27 507.83L368.03 712.18" stroke="hsl(300, 5%, 30.6%)" stroke-width="1.5"></path><path d="M838.33 680.11L838.33 680.11" stroke="hsl(300, 5%, 30.6%)" stroke-width="1.5"></path><path d="M838.33 680.11L699.86 671.71" stroke="hsl(300, 5%, 30.6%)" stroke-width="1.5"></path><path d="M838.33 680.11L804.12 496.31" stroke="hsl(300, 5%, 30.6%)" stroke-width="1.5"></path><path d="M838.33 680.11L942.68 522.05" stroke="hsl(300, 5%, 30.6%)" stroke-width="1.5"></path><path d="M1252.53 -95.81L1252.53 -95.81" stroke="hsl(300, 5%, 30.6%)" stroke-width="1.5"></path><path d="M1252.53 -95.81L1259.89 46.35" stroke="hsl(300, 5%, 30.6%)" stroke-width="1.5"></path><path d="M1252.53 -95.81L1418.97 -43.26" stroke="hsl(300, 5%, 30.6%)" stroke-width="1.5"></path><path d="M1252.53 -95.81L1427.71 41.58" stroke="hsl(300, 5%, 30.6%)" stroke-width="1.5"></path><path d="M1252.53 -95.81L1257.55 228.34" stroke="hsl(300, 5%, 30.6%)" stroke-width="1.5"></path><path d="M1252.53 -95.81L1090.36 191.77" stroke="hsl(300, 5%, 30.6%)" stroke-width="1.5"></path><path d="M1259.89 46.35L1259.89 46.35" stroke="hsl(300, 5%, 30.6%)" stroke-width="1.5"></path><path d="M1257.55 228.34L1257.55 228.34" stroke="hsl(300, 5%, 30.6%)" stroke-width="1.5"></path><path d="M1257.55 228.34L1285.06 356.73" stroke="hsl(300, 5%, 30.6%)" stroke-width="1.5"></path><path d="M1257.55 228.34L1408.28 201.41" stroke="hsl(300, 5%, 30.6%)" stroke-width="1.5"></path><path d="M1581.84 -50.02L1581.84 -50.02" stroke="hsl(300, 5%, 30.6%)" stroke-width="1.5"></path><path d="M1581.84 -50.02L1595.26 90.47" stroke="hsl(300, 5%, 30.6%)" stroke-width="1.5"></path><path d="M1581.84 -50.02L1418.97 -43.26" stroke="hsl(300, 5%, 30.6%)" stroke-width="1.5"></path><path d="M1581.84 -50.02L1427.71 41.58" stroke="hsl(300, 5%, 30.6%)" stroke-width="1.5"></path><path d="M1581.84 -50.02L1583.99 239.88" stroke="hsl(300, 5%, 30.6%)" stroke-width="1.5"></path><path d="M1581.84 -50.02L1408.28 201.41" stroke="hsl(300, 5%, 30.6%)" stroke-width="1.5"></path><path d="M1581.84 -50.02L1252.53 -95.81" stroke="hsl(300, 5%, 30.6%)" stroke-width="1.5"></path><path d="M1546.11 533.09L1546.11 533.09" stroke="hsl(300, 5%, 30.6%)" stroke-width="1.5"></path><path d="M1546.11 533.09L1450.87 502.11" stroke="hsl(300, 5%, 30.6%)" stroke-width="1.5"></path><path d="M1546.11 533.09L1442.1 656.29" stroke="hsl(300, 5%, 30.6%)" stroke-width="1.5"></path><path d="M1546.11 533.09L1561.48 371.34" stroke="hsl(300, 5%, 30.6%)" stroke-width="1.5"></path><path d="M1546.11 533.09L1587.28 696.19" stroke="hsl(300, 5%, 30.6%)" stroke-width="1.5"></path><path d="M-98.79 534.86L-98.79 534.86" stroke="hsl(300, 5%, 30.6%)" stroke-width="1.5"></path><path d="M-98.79 534.86L85.37 672.36" stroke="hsl(300, 5%, 30.6%)" stroke-width="1.5"></path><path d="M-98.79 534.86L209.9 539.16" stroke="hsl(300, 5%, 30.6%)" stroke-width="1.5"></path><path d="M-98.79 534.86L213.53 682.6" stroke="hsl(300, 5%, 30.6%)" stroke-width="1.5"></path><path d="M-98.79 534.86L368.03 712.18" stroke="hsl(300, 5%, 30.6%)" stroke-width="1.5"></path><path d="M-98.79 534.86L411.27 510.41" stroke="hsl(300, 5%, 30.6%)" stroke-width="1.5"></path><path d="M85.37 672.36L85.37 672.36" stroke="hsl(300, 5%, 30.6%)" stroke-width="1.5"></path><path d="M85.37 672.36L213.53 682.6" stroke="hsl(300, 5%, 30.6%)" stroke-width="1.5"></path><path d="M85.37 672.36L37.59 502.81" stroke="hsl(300, 5%, 30.6%)" stroke-width="1.5"></path><path d="M85.37 672.36L368.03 712.18" stroke="hsl(300, 5%, 30.6%)" stroke-width="1.5"></path><path d="M213.53 682.6L213.53 682.6" stroke="hsl(300, 5%, 30.6%)" stroke-width="1.5"></path><path d="M213.53 682.6L368.03 712.18" stroke="hsl(300, 5%, 30.6%)" stroke-width="1.5"></path><path d="M213.53 682.6L37.59 502.81" stroke="hsl(300, 5%, 30.6%)" stroke-width="1.5"></path><path d="M213.53 682.6L411.27 510.41" stroke="hsl(300, 5%, 30.6%)" stroke-width="1.5"></path><path d="M411.27 510.41L411.27 510.41" stroke="hsl(300, 5%, 30.6%)" stroke-width="1.5"></path><path d="M411.27 510.41L209.9 539.16" stroke="hsl(300, 5%, 30.6%)" stroke-width="1.5"></path><path d="M411.27 510.41L368.03 712.18" stroke="hsl(300, 5%, 30.6%)" stroke-width="1.5"></path><path d="M368.03 712.18L368.03 712.18" stroke="hsl(300, 5%, 30.6%)" stroke-width="1.5"></path><path d="M368.03 712.18L209.9 539.16" stroke="hsl(300, 5%, 30.6%)" stroke-width="1.5"></path><path d="M700.03 402.3L700.03 402.3" stroke="hsl(300, 5%, 30.6%)" stroke-width="1.5"></path><path d="M700.03 402.3L804.12 496.31" stroke="hsl(300, 5%, 30.6%)" stroke-width="1.5"></path><path d="M700.03 402.3L845.85 403.6" stroke="hsl(300, 5%, 30.6%)" stroke-width="1.5"></path><path d="M699.86 671.71L699.86 671.71" stroke="hsl(300, 5%, 30.6%)" stroke-width="1.5"></path><path d="M699.86 671.71L804.12 496.31" stroke="hsl(300, 5%, 30.6%)" stroke-width="1.5"></path><path d="M845.85 403.6L845.85 403.6" stroke="hsl(300, 5%, 30.6%)" stroke-width="1.5"></path><path d="M845.85 403.6L804.12 496.31" stroke="hsl(300, 5%, 30.6%)" stroke-width="1.5"></path><path d="M845.85 403.6L988.61 406.02" stroke="hsl(300, 5%, 30.6%)" stroke-width="1.5"></path><path d="M804.12 496.31L804.12 496.31" stroke="hsl(300, 5%, 30.6%)" stroke-width="1.5"></path><path d="M804.12 496.31L942.68 522.05" stroke="hsl(300, 5%, 30.6%)" stroke-width="1.5"></path><path d="M979.13 240.72L979.13 240.72" stroke="hsl(300, 5%, 30.6%)" stroke-width="1.5"></path><path d="M979.13 240.72L1090.36 191.77" stroke="hsl(300, 5%, 30.6%)" stroke-width="1.5"></path><path d="M979.13 240.72L988.61 406.02" stroke="hsl(300, 5%, 30.6%)" stroke-width="1.5"></path><path d="M979.13 240.72L1147.59 346.82" stroke="hsl(300, 5%, 30.6%)" stroke-width="1.5"></path><path d="M979.13 240.72L845.85 403.6" stroke="hsl(300, 5%, 30.6%)" stroke-width="1.5"></path><path d="M988.61 406.02L988.61 406.02" stroke="hsl(300, 5%, 30.6%)" stroke-width="1.5"></path><path d="M988.61 406.02L942.68 522.05" stroke="hsl(300, 5%, 30.6%)" stroke-width="1.5"></path><path d="M942.68 522.05L942.68 522.05" stroke="hsl(300, 5%, 30.6%)" stroke-width="1.5"></path><path d="M942.68 522.05L845.85 403.6" stroke="hsl(300, 5%, 30.6%)" stroke-width="1.5"></path><path d="M942.68 522.05L1147.24 534.58" stroke="hsl(300, 5%, 30.6%)" stroke-width="1.5"></path><path d="M942.68 522.05L1112.87 661.78" stroke="hsl(300, 5%, 30.6%)" stroke-width="1.5"></path><path d="M1090.36 191.77L1090.36 191.77" stroke="hsl(300, 5%, 30.6%)" stroke-width="1.5"></path><path d="M1090.36 191.77L1147.59 346.82" stroke="hsl(300, 5%, 30.6%)" stroke-width="1.5"></path><path d="M1090.36 191.77L1257.55 228.34" stroke="hsl(300, 5%, 30.6%)" stroke-width="1.5"></path><path d="M1147.59 346.82L1147.59 346.82" stroke="hsl(300, 5%, 30.6%)" stroke-width="1.5"></path><path d="M1147.59 346.82L1285.06 356.73" stroke="hsl(300, 5%, 30.6%)" stroke-width="1.5"></path><path d="M1147.59 346.82L1257.55 228.34" stroke="hsl(300, 5%, 30.6%)" stroke-width="1.5"></path><path d="M1147.59 346.82L988.61 406.02" stroke="hsl(300, 5%, 30.6%)" stroke-width="1.5"></path><path d="M1147.59 346.82L1147.24 534.58" stroke="hsl(300, 5%, 30.6%)" stroke-width="1.5"></path><path d="M1147.24 534.58L1147.24 534.58" stroke="hsl(300, 5%, 30.6%)" stroke-width="1.5"></path><path d="M1147.24 534.58L1112.87 661.78" stroke="hsl(300, 5%, 30.6%)" stroke-width="1.5"></path><path d="M1147.24 534.58L1294.4 543.03" stroke="hsl(300, 5%, 30.6%)" stroke-width="1.5"></path><path d="M1112.87 661.78L1112.87 661.78" stroke="hsl(300, 5%, 30.6%)" stroke-width="1.5"></path><path d="M1112.87 661.78L1238.36 653.83" stroke="hsl(300, 5%, 30.6%)" stroke-width="1.5"></path><path d="M1285.06 356.73L1285.06 356.73" stroke="hsl(300, 5%, 30.6%)" stroke-width="1.5"></path><path d="M1285.06 356.73L1399.01 342.47" stroke="hsl(300, 5%, 30.6%)" stroke-width="1.5"></path><path d="M1285.06 356.73L1294.4 543.03" stroke="hsl(300, 5%, 30.6%)" stroke-width="1.5"></path><path d="M1285.06 356.73L1408.28 201.41" stroke="hsl(300, 5%, 30.6%)" stroke-width="1.5"></path><path d="M1285.06 356.73L1450.87 502.11" stroke="hsl(300, 5%, 30.6%)" stroke-width="1.5"></path><path d="M1294.4 543.03L1294.4 543.03" stroke="hsl(300, 5%, 30.6%)" stroke-width="1.5"></path><path d="M1294.4 543.03L1238.36 653.83" stroke="hsl(300, 5%, 30.6%)" stroke-width="1.5"></path><path d="M1294.4 543.03L1450.87 502.11" stroke="hsl(300, 5%, 30.6%)" stroke-width="1.5"></path><path d="M1294.4 543.03L1442.1 656.29" stroke="hsl(300, 5%, 30.6%)" stroke-width="1.5"></path><path d="M1294.4 543.03L1112.87 661.78" stroke="hsl(300, 5%, 30.6%)" stroke-width="1.5"></path><path d="M1238.36 653.83L1238.36 653.83" stroke="hsl(300, 5%, 30.6%)" stroke-width="1.5"></path><path d="M1238.36 653.83L1147.24 534.58" stroke="hsl(300, 5%, 30.6%)" stroke-width="1.5"></path><path d="M1418.97 -43.26L1418.97 -43.26" stroke="hsl(300, 5%, 30.6%)" stroke-width="1.5"></path><path d="M1418.97 -43.26L1427.71 41.58" stroke="hsl(300, 5%, 30.6%)" stroke-width="1.5"></path><path d="M1427.71 41.58L1427.71 41.58" stroke="hsl(300, 5%, 30.6%)" stroke-width="1.5"></path><path d="M1427.71 41.58L1408.28 201.41" stroke="hsl(300, 5%, 30.6%)" stroke-width="1.5"></path><path d="M1427.71 41.58L1259.89 46.35" stroke="hsl(300, 5%, 30.6%)" stroke-width="1.5"></path><path d="M1427.71 41.58L1595.26 90.47" stroke="hsl(300, 5%, 30.6%)" stroke-width="1.5"></path><path d="M1408.28 201.41L1408.28 201.41" stroke="hsl(300, 5%, 30.6%)" stroke-width="1.5"></path><path d="M1408.28 201.41L1399.01 342.47" stroke="hsl(300, 5%, 30.6%)" stroke-width="1.5"></path><path d="M1399.01 342.47L1399.01 342.47" stroke="hsl(300, 5%, 30.6%)" stroke-width="1.5"></path><path d="M1399.01 342.47L1561.48 371.34" stroke="hsl(300, 5%, 30.6%)" stroke-width="1.5"></path><path d="M1399.01 342.47L1450.87 502.11" stroke="hsl(300, 5%, 30.6%)" stroke-width="1.5"></path><path d="M1399.01 342.47L1257.55 228.34" stroke="hsl(300, 5%, 30.6%)" stroke-width="1.5"></path><path d="M1399.01 342.47L1583.99 239.88" stroke="hsl(300, 5%, 30.6%)" stroke-width="1.5"></path><path d="M1450.87 502.11L1450.87 502.11" stroke="hsl(300, 5%, 30.6%)" stroke-width="1.5"></path><path d="M1450.87 502.11L1442.1 656.29" stroke="hsl(300, 5%, 30.6%)" stroke-width="1.5"></path><path d="M1442.1 656.29L1442.1 656.29" stroke="hsl(300, 5%, 30.6%)" stroke-width="1.5"></path><path d="M1442.1 656.29L1587.28 696.19" stroke="hsl(300, 5%, 30.6%)" stroke-width="1.5"></path><path d="M1595.26 90.47L1595.26 90.47" stroke="hsl(300, 5%, 30.6%)" stroke-width="1.5"></path><path d="M1595.26 90.47L1583.99 239.88" stroke="hsl(300, 5%, 30.6%)" stroke-width="1.5"></path><path d="M1595.26 90.47L1408.28 201.41" stroke="hsl(300, 5%, 30.6%)" stroke-width="1.5"></path><path d="M1595.26 90.47L1418.97 -43.26" stroke="hsl(300, 5%, 30.6%)" stroke-width="1.5"></path><path d="M1595.26 90.47L1561.48 371.34" stroke="hsl(300, 5%, 30.6%)" stroke-width="1.5"></path><path d="M1583.99 239.88L1583.99 239.88" stroke="hsl(300, 5%, 30.6%)" stroke-width="1.5"></path><path d="M1583.99 239.88L1561.48 371.34" stroke="hsl(300, 5%, 30.6%)" stroke-width="1.5"></path><path d="M1583.99 239.88L1408.28 201.41" stroke="hsl(300, 5%, 30.6%)" stroke-width="1.5"></path><path d="M1561.48 371.34L1561.48 371.34" stroke="hsl(300, 5%, 30.6%)" stroke-width="1.5"></path><path d="M1561.48 371.34L1450.87 502.11" stroke="hsl(300, 5%, 30.6%)" stroke-width="1.5"></path><path d="M1561.48 371.34L1408.28 201.41" stroke="hsl(300, 5%, 30.6%)" stroke-width="1.5"></path><path d="M1587.28 696.19L1587.28 696.19" stroke="hsl(300, 5%, 30.6%)" stroke-width="1.5"></path><path d="M1587.28 696.19L1450.87 502.11" stroke="hsl(300, 5%, 30.6%)" stroke-width="1.5"></path><path d="M1587.28 696.19L1561.48 371.34" stroke="hsl(300, 5%, 30.6%)" stroke-width="1.5"></path><path d="M1587.28 696.19L1294.4 543.03" stroke="hsl(300, 5%, 30.6%)" stroke-width="1.5"></path><path d="M1587.28 696.19L1238.36 653.83" stroke="hsl(300, 5%, 30.6%)" stroke-width="1.5"></path><circle r="25" cx="37.59" cy="502.81" fill="url(&quot;#SvgjsRadialGradient1076&quot;)"></circle><circle r="25" cx="209.9" cy="539.16" fill="url(&quot;#SvgjsRadialGradient1076&quot;)"></circle><circle r="25" cx="546.27" cy="507.83" fill="url(&quot;#SvgjsRadialGradient1076&quot;)"></circle><circle r="25" cx="838.33" cy="680.11" fill="url(&quot;#SvgjsRadialGradient1076&quot;)"></circle><circle r="25" cx="1252.53" cy="-95.81" fill="url(&quot;#SvgjsRadialGradient1076&quot;)"></circle><circle r="25" cx="1259.89" cy="46.35" fill="url(&quot;#SvgjsRadialGradient1076&quot;)"></circle><circle r="25" cx="1257.55" cy="228.34" fill="url(&quot;#SvgjsRadialGradient1076&quot;)"></circle><circle r="25" cx="1581.84" cy="-50.02" fill="url(&quot;#SvgjsRadialGradient1076&quot;)"></circle><circle r="25" cx="1546.11" cy="533.09" fill="url(&quot;#SvgjsRadialGradient1076&quot;)"></circle><circle r="5" cx="-98.79" cy="534.86" fill="#9f9c9f"></circle><circle r="5" cx="85.37" cy="672.36" fill="#9f9c9f"></circle><circle r="5" cx="213.53" cy="682.6" fill="#9f9c9f"></circle><circle r="5" cx="411.27" cy="510.41" fill="#9f9c9f"></circle><circle r="5" cx="368.03" cy="712.18" fill="#9f9c9f"></circle><circle r="5" cx="700.03" cy="402.3" fill="#9f9c9f"></circle><circle r="5" cx="699.86" cy="671.71" fill="#9f9c9f"></circle><circle r="5" cx="845.85" cy="403.6" fill="#9f9c9f"></circle><circle r="5" cx="804.12" cy="496.31" fill="#9f9c9f"></circle><circle r="5" cx="979.13" cy="240.72" fill="#9f9c9f"></circle><circle r="5" cx="988.61" cy="406.02" fill="#9f9c9f"></circle><circle r="5" cx="942.68" cy="522.05" fill="#9f9c9f"></circle><circle r="5" cx="1090.36" cy="191.77" fill="#9f9c9f"></circle><circle r="5" cx="1147.59" cy="346.82" fill="#9f9c9f"></circle><circle r="5" cx="1147.24" cy="534.58" fill="#9f9c9f"></circle><circle r="5" cx="1112.87" cy="661.78" fill="#9f9c9f"></circle><circle r="5" cx="1285.06" cy="356.73" fill="#9f9c9f"></circle><circle r="5" cx="1294.4" cy="543.03" fill="#9f9c9f"></circle><circle r="5" cx="1238.36" cy="653.83" fill="#9f9c9f"></circle><circle r="5" cx="1418.97" cy="-43.26" fill="#9f9c9f"></circle><circle r="5" cx="1427.71" cy="41.58" fill="#9f9c9f"></circle><circle r="5" cx="1408.28" cy="201.41" fill="#9f9c9f"></circle><circle r="5" cx="1399.01" cy="342.47" fill="#9f9c9f"></circle><circle r="5" cx="1450.87" cy="502.11" fill="#9f9c9f"></circle><circle r="5" cx="1442.1" cy="656.29" fill="#9f9c9f"></circle><circle r="5" cx="1595.26" cy="90.47" fill="#9f9c9f"></circle><circle r="5" cx="1583.99" cy="239.88" fill="#9f9c9f"></circle><circle r="5" cx="1561.48" cy="371.34" fill="#9f9c9f"></circle><circle r="5" cx="1587.28" cy="696.19" fill="#9f9c9f"></circle></g><defs><mask id="SvgjsMask1075"><rect width="1440" height="560" fill="#ffffff"></rect></mask><radialGradient id="SvgjsRadialGradient1076"><stop stop-color="#ffffff" offset="0.1"></stop><stop stop-color="rgba(63, 57, 63, 1)" offset="0.2"></stop><stop stop-color="rgba(63, 57, 63, 0)" offset="1"></stop></radialGradient></defs></svg>