<svg xmlns="http://www.w3.org/2000/svg" version="1.1" xmlns:xlink="http://www.w3.org/1999/xlink" xmlns:svgjs="http://svgjs.dev/svgjs" width="1440" height="560" preserveAspectRatio="none" viewBox="0 0 1440 560"><g mask="url(&quot;#SvgjsMask1009&quot;)" fill="none"><path d="M -93.04036013504606,175 C 2.96,198 194.96,285.8 386.95963986495394,290 C 578.96,294.2 674.96,166.4 866.9596398649539,196 C 1058.96,225.6 1154.96,428.6 1346.959639864954,438 C 1538.96,447.4 1808.35,270.8 1826.959639864954,243 C 1845.57,215.2 1517.39,287.8 1440,299" stroke="rgba(55, 49, 55, 1)" stroke-width="2"></path><path d="M -843.2998770998556,186 C -747.3,244.8 -555.3,492.8 -363.2998770998556,480 C -171.3,467.2 -75.3,132.8 116.70012290014438,122 C 308.7,111.2 404.7,413.4 596.7001229001444,426 C 788.7,438.6 908.04,206.6 1076.7001229001444,185 C 1245.36,163.4 1367.34,291.4 1440,318" stroke="rgba(55, 49, 55, 1)" stroke-width="2"></path><path d="M -727.4844909098628,219 C -631.48,243.2 -439.48,334.6 -247.48449090986273,340 C -55.48,345.4 40.52,244.4 232.51550909013727,246 C 424.52,247.6 520.52,351 712.5155090901372,348 C 904.52,345 1047.02,227.4 1192.5155090901374,231 C 1338.01,234.6 1390.5,339 1440,366" stroke="rgba(55, 49, 55, 1)" stroke-width="2"></path><path d="M -916.1619457456367,175 C -820.16,202.6 -628.16,293.6 -436.1619457456367,313 C -244.16,332.4 -148.16,249.4 43.83805425436333,272 C 235.84,294.6 331.84,448.6 523.8380542543633,426 C 715.84,403.4 820.61,161.4 1003.8380542543633,159 C 1187.07,156.6 1352.77,363 1440,414" stroke="rgba(55, 49, 55, 1)" stroke-width="2"></path></g><defs><mask id="SvgjsMask1009"><rect width="1440" height="560" fill="#ffffff"></rect></mask></defs></svg>