<svg xmlns="http://www.w3.org/2000/svg" version="1.1" xmlns:xlink="http://www.w3.org/1999/xlink" xmlns:svgjs="http://svgjs.dev/svgjs" width="1440" height="560" preserveAspectRatio="none" viewBox="0 0 1440 560"><g mask="url(&quot;#SvgjsMask3752&quot;)" fill="none"><g mask="url(&quot;#SvgjsMask3754&quot;)"><path d="M-12.5 287.5L12.5 287.5" stroke="url(&quot;#SvgjsRadialGradient3753&quot;)" stroke-width="4.17"></path><path d="M6.25 287.5 a6.25 6.25 0 1 0 12.5 0 a6.25 6.25 0 1 0 -12.5 0z" fill="url(&quot;#SvgjsRadialGradient3753&quot;)"></path><path d="M-12.5 262.5L12.5 262.5L37.5 262.5" stroke="url(&quot;#SvgjsRadialGradient3753&quot;)" stroke-width="4.17"></path><path d="M31.25 262.5 a6.25 6.25 0 1 0 12.5 0 a6.25 6.25 0 1 0 -12.5 0z" fill="url(&quot;#SvgjsRadialGradient3753&quot;)"></path><path d="M-12.5 312.5L12.5 312.5" stroke="url(&quot;#SvgjsRadialGradient3753&quot;)" stroke-width="4.17"></path><path d="M6.25 312.5 a6.25 6.25 0 1 0 12.5 0 a6.25 6.25 0 1 0 -12.5 0z" fill="url(&quot;#SvgjsRadialGradient3753&quot;)"></path><path d="M87.5 337.5L112.5 362.5L137.5 362.5M37.5 337.5L62.5 312.5L87.5 312.5L112.5 312.5M-12.5 337.5L12.5 337.5L37.5 337.5L62.5 337.5L87.5 337.5L112.5 337.5L137.5 337.5" stroke="url(&quot;#SvgjsRadialGradient3753&quot;)" stroke-width="4.17"></path><path d="M131.25 337.5 a6.25 6.25 0 1 0 12.5 0 a6.25 6.25 0 1 0 -12.5 0zM131.25 362.5 a6.25 6.25 0 1 0 12.5 0 a6.25 6.25 0 1 0 -12.5 0zM106.25 312.5 a6.25 6.25 0 1 0 12.5 0 a6.25 6.25 0 1 0 -12.5 0z" fill="url(&quot;#SvgjsRadialGradient3753&quot;)"></path><path d="M-12.5 212.5L12.5 212.5L37.5 187.5L62.5 162.5" stroke="url(&quot;#SvgjsRadialGradient3753&quot;)" stroke-width="4.17"></path><path d="M56.25 162.5 a6.25 6.25 0 1 0 12.5 0 a6.25 6.25 0 1 0 -12.5 0z" fill="url(&quot;#SvgjsRadialGradient3753&quot;)"></path><path d="M-12.5 362.5L12.5 362.5L37.5 362.5L62.5 362.5" stroke="url(&quot;#SvgjsRadialGradient3753&quot;)" stroke-width="4.17"></path><path d="M56.25 362.5 a6.25 6.25 0 1 0 12.5 0 a6.25 6.25 0 1 0 -12.5 0z" fill="url(&quot;#SvgjsRadialGradient3753&quot;)"></path><path d="M-12.5 187.5L12.5 187.5L37.5 162.5L62.5 137.5L87.5 137.5" stroke="url(&quot;#SvgjsRadialGradient3753&quot;)" stroke-width="4.17"></path><path d="M81.25 137.5 a6.25 6.25 0 1 0 12.5 0 a6.25 6.25 0 1 0 -12.5 0z" fill="url(&quot;#SvgjsRadialGradient3753&quot;)"></path><path d="M137.5 387.5L162.5 412.5M62.5 387.5L87.5 412.5L112.5 412.5M37.5 387.5L62.5 412.5M-12.5 387.5L12.5 387.5L37.5 387.5L62.5 387.5L87.5 387.5L112.5 387.5L137.5 387.5L162.5 387.5L187.5 387.5L212.5 387.5" stroke="url(&quot;#SvgjsRadialGradient3753&quot;)" stroke-width="4.17"></path><path d="M206.25 387.5 a6.25 6.25 0 1 0 12.5 0 a6.25 6.25 0 1 0 -12.5 0zM156.25 412.5 a6.25 6.25 0 1 0 12.5 0 a6.25 6.25 0 1 0 -12.5 0zM106.25 412.5 a6.25 6.25 0 1 0 12.5 0 a6.25 6.25 0 1 0 -12.5 0zM56.25 412.5 a6.25 6.25 0 1 0 12.5 0 a6.25 6.25 0 1 0 -12.5 0z" fill="url(&quot;#SvgjsRadialGradient3753&quot;)"></path><path d="M112.5 112.5L137.5 137.5M87.5 112.5L112.5 87.5L137.5 87.5L162.5 87.5M62.5 112.5L87.5 87.5M-12.5 162.5L12.5 162.5L37.5 137.5L62.5 112.5L87.5 112.5L112.5 112.5L137.5 112.5L162.5 137.5" stroke="url(&quot;#SvgjsRadialGradient3753&quot;)" stroke-width="4.17"></path><path d="M156.25 137.5 a6.25 6.25 0 1 0 12.5 0 a6.25 6.25 0 1 0 -12.5 0zM131.25 137.5 a6.25 6.25 0 1 0 12.5 0 a6.25 6.25 0 1 0 -12.5 0zM156.25 87.5 a6.25 6.25 0 1 0 12.5 0 a6.25 6.25 0 1 0 -12.5 0zM81.25 87.5 a6.25 6.25 0 1 0 12.5 0 a6.25 6.25 0 1 0 -12.5 0z" fill="url(&quot;#SvgjsRadialGradient3753&quot;)"></path></g></g><defs><mask id="SvgjsMask3752"><rect width="1440" height="560" fill="#ffffff"></rect></mask><radialGradient cx="180" cy="280" r="332.87" gradientUnits="userSpaceOnUse" id="SvgjsRadialGradient3753"><stop stop-color="rgba(161, 148, 161, 1)" offset="0"></stop><stop stop-color="rgba(35, 33, 35, 1)" offset="0.75"></stop></radialGradient><mask id="SvgjsMask3754"><rect width="1440" height="560" fill="white"></rect><path d="M9.37 287.5 a3.13 3.13 0 1 0 6.26 0 a3.13 3.13 0 1 0 -6.26 0z" fill="black"></path><path d="M34.37 262.5 a3.13 3.13 0 1 0 6.26 0 a3.13 3.13 0 1 0 -6.26 0z" fill="black"></path><path d="M9.37 312.5 a3.13 3.13 0 1 0 6.26 0 a3.13 3.13 0 1 0 -6.26 0z" fill="black"></path><path d="M134.37 337.5 a3.13 3.13 0 1 0 6.26 0 a3.13 3.13 0 1 0 -6.26 0zM134.37 362.5 a3.13 3.13 0 1 0 6.26 0 a3.13 3.13 0 1 0 -6.26 0zM109.37 312.5 a3.13 3.13 0 1 0 6.26 0 a3.13 3.13 0 1 0 -6.26 0z" fill="black"></path><path d="M59.37 162.5 a3.13 3.13 0 1 0 6.26 0 a3.13 3.13 0 1 0 -6.26 0z" fill="black"></path><path d="M59.37 362.5 a3.13 3.13 0 1 0 6.26 0 a3.13 3.13 0 1 0 -6.26 0z" fill="black"></path><path d="M84.37 137.5 a3.13 3.13 0 1 0 6.26 0 a3.13 3.13 0 1 0 -6.26 0z" fill="black"></path><path d="M209.37 387.5 a3.13 3.13 0 1 0 6.26 0 a3.13 3.13 0 1 0 -6.26 0zM159.37 412.5 a3.13 3.13 0 1 0 6.26 0 a3.13 3.13 0 1 0 -6.26 0zM109.37 412.5 a3.13 3.13 0 1 0 6.26 0 a3.13 3.13 0 1 0 -6.26 0zM59.37 412.5 a3.13 3.13 0 1 0 6.26 0 a3.13 3.13 0 1 0 -6.26 0z" fill="black"></path><path d="M159.37 137.5 a3.13 3.13 0 1 0 6.26 0 a3.13 3.13 0 1 0 -6.26 0zM134.37 137.5 a3.13 3.13 0 1 0 6.26 0 a3.13 3.13 0 1 0 -6.26 0zM159.37 87.5 a3.13 3.13 0 1 0 6.26 0 a3.13 3.13 0 1 0 -6.26 0zM84.37 87.5 a3.13 3.13 0 1 0 6.26 0 a3.13 3.13 0 1 0 -6.26 0z" fill="black"></path></mask></defs></svg>