<svg xmlns="http://www.w3.org/2000/svg" version="1.1" xmlns:xlink="http://www.w3.org/1999/xlink" xmlns:svgjs="http://svgjs.dev/svgjs" width="1440" height="560" preserveAspectRatio="none" viewBox="0 0 1440 560"><g mask="url(&quot;#SvgjsMask4004&quot;)" fill="none"><g mask="url(&quot;#SvgjsMask4006&quot;)"><path d="M1462.5 287.5L1437.5 287.5L1412.5 287.5L1387.5 287.5L1362.5 287.5L1337.5 287.5L1312.5 287.5" stroke="url(&quot;#SvgjsRadialGradient4005&quot;)" stroke-width="4.17"></path><path d="M1306.25 287.5 a6.25 6.25 0 1 0 12.5 0 a6.25 6.25 0 1 0 -12.5 0z" fill="url(&quot;#SvgjsRadialGradient4005&quot;)"></path><path d="M1337.5 262.5L1312.5 237.5L1287.5 237.5L1262.5 237.5L1237.5 237.5M1462.5 262.5L1437.5 262.5L1412.5 262.5L1387.5 262.5L1362.5 262.5L1337.5 262.5L1312.5 262.5" stroke="url(&quot;#SvgjsRadialGradient4005&quot;)" stroke-width="4.17"></path><path d="M1306.25 262.5 a6.25 6.25 0 1 0 12.5 0 a6.25 6.25 0 1 0 -12.5 0zM1231.25 237.5 a6.25 6.25 0 1 0 12.5 0 a6.25 6.25 0 1 0 -12.5 0z" fill="url(&quot;#SvgjsRadialGradient4005&quot;)"></path><path d="M1287.5 312.5L1262.5 337.5M1412.5 312.5L1387.5 337.5L1362.5 337.5L1337.5 337.5L1312.5 337.5M1437.5 312.5L1412.5 337.5L1387.5 362.5L1362.5 362.5L1337.5 362.5M1462.5 312.5L1437.5 312.5L1412.5 312.5L1387.5 312.5L1362.5 312.5L1337.5 312.5L1312.5 312.5L1287.5 312.5L1262.5 312.5" stroke="url(&quot;#SvgjsRadialGradient4005&quot;)" stroke-width="4.17"></path><path d="M1256.25 312.5 a6.25 6.25 0 1 0 12.5 0 a6.25 6.25 0 1 0 -12.5 0zM1256.25 337.5 a6.25 6.25 0 1 0 12.5 0 a6.25 6.25 0 1 0 -12.5 0zM1306.25 337.5 a6.25 6.25 0 1 0 12.5 0 a6.25 6.25 0 1 0 -12.5 0zM1331.25 362.5 a6.25 6.25 0 1 0 12.5 0 a6.25 6.25 0 1 0 -12.5 0z" fill="url(&quot;#SvgjsRadialGradient4005&quot;)"></path><path d="M1462.5 237.5L1437.5 237.5L1412.5 237.5L1387.5 237.5L1362.5 237.5" stroke="url(&quot;#SvgjsRadialGradient4005&quot;)" stroke-width="4.17"></path><path d="M1356.25 237.5 a6.25 6.25 0 1 0 12.5 0 a6.25 6.25 0 1 0 -12.5 0z" fill="url(&quot;#SvgjsRadialGradient4005&quot;)"></path><path d="M1437.5 362.5L1412.5 362.5M1462.5 337.5L1437.5 362.5L1412.5 387.5L1387.5 387.5L1362.5 387.5L1337.5 387.5" stroke="url(&quot;#SvgjsRadialGradient4005&quot;)" stroke-width="4.17"></path><path d="M1331.25 387.5 a6.25 6.25 0 1 0 12.5 0 a6.25 6.25 0 1 0 -12.5 0zM1406.25 362.5 a6.25 6.25 0 1 0 12.5 0 a6.25 6.25 0 1 0 -12.5 0z" fill="url(&quot;#SvgjsRadialGradient4005&quot;)"></path><path d="M1412.5 212.5L1387.5 187.5L1362.5 187.5M1287.5 212.5L1262.5 187.5L1237.5 187.5M1312.5 212.5L1287.5 187.5L1262.5 162.5M1462.5 212.5L1437.5 212.5L1412.5 212.5L1387.5 212.5L1362.5 212.5L1337.5 212.5L1312.5 212.5L1287.5 212.5L1262.5 212.5L1237.5 212.5" stroke="url(&quot;#SvgjsRadialGradient4005&quot;)" stroke-width="4.17"></path><path d="M1231.25 212.5 a6.25 6.25 0 1 0 12.5 0 a6.25 6.25 0 1 0 -12.5 0zM1356.25 187.5 a6.25 6.25 0 1 0 12.5 0 a6.25 6.25 0 1 0 -12.5 0zM1231.25 187.5 a6.25 6.25 0 1 0 12.5 0 a6.25 6.25 0 1 0 -12.5 0zM1256.25 162.5 a6.25 6.25 0 1 0 12.5 0 a6.25 6.25 0 1 0 -12.5 0z" fill="url(&quot;#SvgjsRadialGradient4005&quot;)"></path><path d="M1437.5 187.5L1412.5 187.5M1462.5 187.5L1437.5 187.5L1412.5 162.5L1387.5 162.5" stroke="url(&quot;#SvgjsRadialGradient4005&quot;)" stroke-width="4.17"></path><path d="M1381.25 162.5 a6.25 6.25 0 1 0 12.5 0 a6.25 6.25 0 1 0 -12.5 0zM1406.25 187.5 a6.25 6.25 0 1 0 12.5 0 a6.25 6.25 0 1 0 -12.5 0z" fill="url(&quot;#SvgjsRadialGradient4005&quot;)"></path><path d="M1337.5 412.5L1312.5 437.5M1387.5 412.5L1362.5 437.5L1337.5 437.5M1462.5 387.5L1437.5 387.5L1412.5 412.5L1387.5 412.5L1362.5 412.5L1337.5 412.5L1312.5 412.5" stroke="url(&quot;#SvgjsRadialGradient4005&quot;)" stroke-width="4.17"></path><path d="M1306.25 412.5 a6.25 6.25 0 1 0 12.5 0 a6.25 6.25 0 1 0 -12.5 0zM1306.25 437.5 a6.25 6.25 0 1 0 12.5 0 a6.25 6.25 0 1 0 -12.5 0zM1331.25 437.5 a6.25 6.25 0 1 0 12.5 0 a6.25 6.25 0 1 0 -12.5 0z" fill="url(&quot;#SvgjsRadialGradient4005&quot;)"></path><path d="M1312.5 137.5L1287.5 112.5L1262.5 112.5L1237.5 112.5M1337.5 137.5L1312.5 162.5L1287.5 162.5M1362.5 137.5L1337.5 162.5L1312.5 187.5M1462.5 162.5L1437.5 162.5L1412.5 137.5L1387.5 137.5L1362.5 137.5L1337.5 137.5L1312.5 137.5L1287.5 137.5L1262.5 137.5L1237.5 137.5" stroke="url(&quot;#SvgjsRadialGradient4005&quot;)" stroke-width="4.17"></path><path d="M1231.25 137.5 a6.25 6.25 0 1 0 12.5 0 a6.25 6.25 0 1 0 -12.5 0zM1231.25 112.5 a6.25 6.25 0 1 0 12.5 0 a6.25 6.25 0 1 0 -12.5 0zM1281.25 162.5 a6.25 6.25 0 1 0 12.5 0 a6.25 6.25 0 1 0 -12.5 0zM1306.25 187.5 a6.25 6.25 0 1 0 12.5 0 a6.25 6.25 0 1 0 -12.5 0z" fill="url(&quot;#SvgjsRadialGradient4005&quot;)"></path></g></g><defs><mask id="SvgjsMask4004"><rect width="1440" height="560" fill="#ffffff"></rect></mask><radialGradient cx="1260" cy="280" r="332.87" gradientUnits="userSpaceOnUse" id="SvgjsRadialGradient4005"><stop stop-color="rgba(161, 148, 161, 1)" offset="0"></stop><stop stop-color="rgba(35, 33, 35, 1)" offset="0.75"></stop></radialGradient><mask id="SvgjsMask4006"><rect width="1440" height="560" fill="white"></rect><path d="M1309.37 287.5 a3.13 3.13 0 1 0 6.26 0 a3.13 3.13 0 1 0 -6.26 0z" fill="black"></path><path d="M1309.37 262.5 a3.13 3.13 0 1 0 6.26 0 a3.13 3.13 0 1 0 -6.26 0zM1234.37 237.5 a3.13 3.13 0 1 0 6.26 0 a3.13 3.13 0 1 0 -6.26 0z" fill="black"></path><path d="M1259.37 312.5 a3.13 3.13 0 1 0 6.26 0 a3.13 3.13 0 1 0 -6.26 0zM1259.37 337.5 a3.13 3.13 0 1 0 6.26 0 a3.13 3.13 0 1 0 -6.26 0zM1309.37 337.5 a3.13 3.13 0 1 0 6.26 0 a3.13 3.13 0 1 0 -6.26 0zM1334.37 362.5 a3.13 3.13 0 1 0 6.26 0 a3.13 3.13 0 1 0 -6.26 0z" fill="black"></path><path d="M1359.37 237.5 a3.13 3.13 0 1 0 6.26 0 a3.13 3.13 0 1 0 -6.26 0z" fill="black"></path><path d="M1334.37 387.5 a3.13 3.13 0 1 0 6.26 0 a3.13 3.13 0 1 0 -6.26 0zM1409.37 362.5 a3.13 3.13 0 1 0 6.26 0 a3.13 3.13 0 1 0 -6.26 0z" fill="black"></path><path d="M1234.37 212.5 a3.13 3.13 0 1 0 6.26 0 a3.13 3.13 0 1 0 -6.26 0zM1359.37 187.5 a3.13 3.13 0 1 0 6.26 0 a3.13 3.13 0 1 0 -6.26 0zM1234.37 187.5 a3.13 3.13 0 1 0 6.26 0 a3.13 3.13 0 1 0 -6.26 0zM1259.37 162.5 a3.13 3.13 0 1 0 6.26 0 a3.13 3.13 0 1 0 -6.26 0z" fill="black"></path><path d="M1384.37 162.5 a3.13 3.13 0 1 0 6.26 0 a3.13 3.13 0 1 0 -6.26 0zM1409.37 187.5 a3.13 3.13 0 1 0 6.26 0 a3.13 3.13 0 1 0 -6.26 0z" fill="black"></path><path d="M1309.37 412.5 a3.13 3.13 0 1 0 6.26 0 a3.13 3.13 0 1 0 -6.26 0zM1309.37 437.5 a3.13 3.13 0 1 0 6.26 0 a3.13 3.13 0 1 0 -6.26 0zM1334.37 437.5 a3.13 3.13 0 1 0 6.26 0 a3.13 3.13 0 1 0 -6.26 0z" fill="black"></path><path d="M1234.37 137.5 a3.13 3.13 0 1 0 6.26 0 a3.13 3.13 0 1 0 -6.26 0zM1234.37 112.5 a3.13 3.13 0 1 0 6.26 0 a3.13 3.13 0 1 0 -6.26 0zM1284.37 162.5 a3.13 3.13 0 1 0 6.26 0 a3.13 3.13 0 1 0 -6.26 0zM1309.37 187.5 a3.13 3.13 0 1 0 6.26 0 a3.13 3.13 0 1 0 -6.26 0z" fill="black"></path></mask></defs></svg>